<mxfile host="app.diagrams.net" agent="Mozilla/5.0 (Windows NT 10.0; Win64; x64) AppleWebKit/537.36 (KHTML, like Gecko) Chrome/120.0.0.0 Safari/537.36" version="24.7.13">
  <diagram name="Página-1" id="Z-yrA6SprZtT_Mx01506">
    <mxGraphModel dx="1434" dy="780" grid="1" gridSize="10" guides="1" tooltips="1" connect="1" arrows="1" fold="1" page="1" pageScale="1" pageWidth="827" pageHeight="1169" math="0" shadow="0">
      <root>
        <mxCell id="0" />
        <mxCell id="1" parent="0" />
        <mxCell id="EkpcAKVCII2hrlFAgUzv-12" style="edgeStyle=orthogonalEdgeStyle;rounded=0;orthogonalLoop=1;jettySize=auto;html=1;" edge="1" parent="1" source="EkpcAKVCII2hrlFAgUzv-1" target="EkpcAKVCII2hrlFAgUzv-2">
          <mxGeometry relative="1" as="geometry" />
        </mxCell>
        <mxCell id="EkpcAKVCII2hrlFAgUzv-1" value="INICIO" style="ellipse;whiteSpace=wrap;html=1;" vertex="1" parent="1">
          <mxGeometry x="70" y="40" width="120" height="80" as="geometry" />
        </mxCell>
        <mxCell id="EkpcAKVCII2hrlFAgUzv-11" style="edgeStyle=orthogonalEdgeStyle;rounded=0;orthogonalLoop=1;jettySize=auto;html=1;entryX=0.5;entryY=0;entryDx=0;entryDy=0;" edge="1" parent="1" source="EkpcAKVCII2hrlFAgUzv-2" target="EkpcAKVCII2hrlFAgUzv-4">
          <mxGeometry relative="1" as="geometry" />
        </mxCell>
        <mxCell id="EkpcAKVCII2hrlFAgUzv-2" value="Digite um número" style="shape=manualInput;whiteSpace=wrap;html=1;" vertex="1" parent="1">
          <mxGeometry x="90" y="150" width="80" height="80" as="geometry" />
        </mxCell>
        <mxCell id="EkpcAKVCII2hrlFAgUzv-9" style="edgeStyle=orthogonalEdgeStyle;rounded=0;orthogonalLoop=1;jettySize=auto;html=1;entryX=0.5;entryY=0;entryDx=0;entryDy=0;" edge="1" parent="1" source="EkpcAKVCII2hrlFAgUzv-3" target="EkpcAKVCII2hrlFAgUzv-7">
          <mxGeometry relative="1" as="geometry" />
        </mxCell>
        <mxCell id="EkpcAKVCII2hrlFAgUzv-13" style="edgeStyle=orthogonalEdgeStyle;rounded=0;orthogonalLoop=1;jettySize=auto;html=1;entryX=0;entryY=0.5;entryDx=0;entryDy=0;" edge="1" parent="1" source="EkpcAKVCII2hrlFAgUzv-3" target="EkpcAKVCII2hrlFAgUzv-5">
          <mxGeometry relative="1" as="geometry" />
        </mxCell>
        <mxCell id="EkpcAKVCII2hrlFAgUzv-3" value="n1 &amp;gt; 0" style="rhombus;whiteSpace=wrap;html=1;" vertex="1" parent="1">
          <mxGeometry x="90" y="420" width="80" height="80" as="geometry" />
        </mxCell>
        <mxCell id="EkpcAKVCII2hrlFAgUzv-10" style="edgeStyle=orthogonalEdgeStyle;rounded=0;orthogonalLoop=1;jettySize=auto;html=1;entryX=0.5;entryY=0;entryDx=0;entryDy=0;" edge="1" parent="1" source="EkpcAKVCII2hrlFAgUzv-4" target="EkpcAKVCII2hrlFAgUzv-3">
          <mxGeometry relative="1" as="geometry" />
        </mxCell>
        <mxCell id="EkpcAKVCII2hrlFAgUzv-4" value="Leia n1" style="rounded=0;whiteSpace=wrap;html=1;" vertex="1" parent="1">
          <mxGeometry x="70" y="290" width="120" height="60" as="geometry" />
        </mxCell>
        <mxCell id="EkpcAKVCII2hrlFAgUzv-8" style="edgeStyle=orthogonalEdgeStyle;rounded=0;orthogonalLoop=1;jettySize=auto;html=1;entryX=0.5;entryY=0;entryDx=0;entryDy=0;" edge="1" parent="1" source="EkpcAKVCII2hrlFAgUzv-5" target="EkpcAKVCII2hrlFAgUzv-6">
          <mxGeometry relative="1" as="geometry" />
        </mxCell>
        <mxCell id="EkpcAKVCII2hrlFAgUzv-5" value="&quot;O numero negativo é &quot;, negativo" style="shape=document;whiteSpace=wrap;html=1;boundedLbl=1;" vertex="1" parent="1">
          <mxGeometry x="280" y="420" width="120" height="80" as="geometry" />
        </mxCell>
        <mxCell id="EkpcAKVCII2hrlFAgUzv-6" value="FIM" style="ellipse;whiteSpace=wrap;html=1;" vertex="1" parent="1">
          <mxGeometry x="280" y="560" width="120" height="80" as="geometry" />
        </mxCell>
        <mxCell id="EkpcAKVCII2hrlFAgUzv-16" style="edgeStyle=orthogonalEdgeStyle;rounded=0;orthogonalLoop=1;jettySize=auto;html=1;entryX=0;entryY=0.5;entryDx=0;entryDy=0;" edge="1" parent="1" source="EkpcAKVCII2hrlFAgUzv-7" target="EkpcAKVCII2hrlFAgUzv-6">
          <mxGeometry relative="1" as="geometry" />
        </mxCell>
        <mxCell id="EkpcAKVCII2hrlFAgUzv-7" value="&quot;O numero positivo é &quot;, positivo" style="shape=document;whiteSpace=wrap;html=1;boundedLbl=1;" vertex="1" parent="1">
          <mxGeometry x="70" y="560" width="120" height="80" as="geometry" />
        </mxCell>
        <mxCell id="EkpcAKVCII2hrlFAgUzv-14" value="NAO" style="text;html=1;align=center;verticalAlign=middle;resizable=0;points=[];autosize=1;strokeColor=none;fillColor=none;" vertex="1" parent="1">
          <mxGeometry x="190" y="430" width="50" height="30" as="geometry" />
        </mxCell>
        <mxCell id="EkpcAKVCII2hrlFAgUzv-15" value="SIM" style="text;html=1;align=center;verticalAlign=middle;resizable=0;points=[];autosize=1;strokeColor=none;fillColor=none;" vertex="1" parent="1">
          <mxGeometry x="80" y="508" width="40" height="30" as="geometry" />
        </mxCell>
      </root>
    </mxGraphModel>
  </diagram>
</mxfile>
